<svg id="svg" version="1.1" xmlns="http://www.w3.org/2000/svg" xmlns:xlink="http://www.w3.org/1999/xlink" width="400" height="400" viewBox="0, 0, 400,400"><g id="svgg"><path id="path0" d="M277.031 0.474 C 249.760 3.448,229.054 13.825,207.121 35.511 L 199.848 42.701 220.151 63.017 C 231.317 74.191,240.581 83.333,240.737 83.333 C 240.893 83.333,243.961 80.429,247.556 76.878 C 258.960 65.615,266.154 61.292,277.576 58.840 C 320.821 49.559,356.042 93.894,337.229 133.929 C 333.014 142.897,334.135 141.683,281.666 194.091 C 251.809 223.913,236.384 239.529,235.627 240.699 C 226.261 255.190,231.188 274.547,246.222 282.325 C 255.865 287.314,267.040 286.642,276.212 280.522 C 278.069 279.283,316.364 241.364,316.364 240.764 C 316.364 240.347,356.729 200.000,357.146 200.000 C 357.614 200.000,370.939 186.433,373.665 183.182 C 397.048 155.295,405.488 118.653,396.629 83.485 C 386.022 41.372,350.958 8.826,308.333 1.527 C 299.352 -0.011,285.691 -0.471,277.031 0.474 M121.287 121.288 C 100.579 141.997,83.636 159.077,83.636 159.244 C 83.636 159.658,43.264 200.000,42.849 200.000 C 41.830 200.000,26.349 216.496,22.232 221.970 C -3.102 255.645,-7.167 301.194,11.786 339.026 C 27.472 370.340,57.809 392.822,91.970 398.450 C 99.751 399.732,101.252 399.842,111.061 399.845 C 143.365 399.856,167.778 389.306,192.879 364.489 L 200.152 357.299 179.849 336.983 C 168.683 325.809,159.419 316.667,159.263 316.667 C 159.107 316.667,156.039 319.573,152.444 323.124 C 141.530 333.909,135.226 337.872,124.614 340.623 C 80.586 352.034,43.231 306.557,63.010 265.625 C 67.271 256.807,65.202 258.997,136.500 187.816 L 200.152 124.269 179.849 103.953 C 168.683 92.779,159.410 83.636,159.243 83.636 C 159.075 83.636,141.996 100.580,121.287 121.288 " stroke="none" fill="#241c23" fill-rule="evenodd"></path><path id="path1" d="M102.879 0.178 C 102.379 0.245,100.470 0.448,98.636 0.630 C 38.704 6.577,-5.902 61.994,0.462 122.597 C 3.344 150.040,13.693 170.811,35.448 192.816 L 42.576 200.025 63.019 179.568 L 83.463 159.111 76.943 152.510 C 69.126 144.595,66.191 140.858,63.353 135.203 C 43.309 95.257,78.287 49.737,122.065 58.798 C 133.825 61.232,141.720 66.036,153.633 78.008 C 156.548 80.937,159.071 83.333,159.240 83.333 C 159.639 83.333,200.000 123.694,200.000 124.092 C 200.000 124.259,217.012 141.406,237.804 162.198 L 275.607 200.000 296.061 179.545 L 316.514 159.091 278.788 121.363 C 258.038 100.614,240.925 83.636,240.757 83.636 C 240.342 83.636,200.000 43.265,200.000 42.849 C 200.000 42.381,186.465 29.098,183.182 26.343 C 166.290 12.173,146.825 3.628,124.848 0.733 C 121.282 0.263,105.258 -0.142,102.879 0.178 M103.938 220.455 L 83.486 240.909 121.212 278.637 C 141.962 299.386,159.075 316.364,159.243 316.364 C 159.658 316.364,200.000 356.735,200.000 357.150 C 200.000 357.603,213.781 371.147,216.978 373.838 C 269.521 418.050,348.657 405.020,384.294 346.290 C 406.988 308.890,405.108 260.027,379.606 224.423 C 375.580 218.802,372.111 214.830,364.552 207.184 L 357.424 199.975 336.981 220.432 L 316.537 240.889 323.057 247.490 C 337.043 261.650,342.435 273.132,342.422 288.728 C 342.384 333.399,291.925 358.039,255.909 330.975 C 254.909 330.223,224.908 300.447,189.241 264.805 L 124.391 200.002 103.938 220.455 " stroke="none" fill="#8cc43c" fill-rule="evenodd"></path><path id="path2" d="M220.152 63.333 C 231.317 74.500,240.521 83.636,240.604 83.636 C 240.688 83.636,231.620 74.500,220.455 63.333 C 209.289 52.167,200.085 43.030,200.002 43.030 C 199.918 43.030,208.986 52.167,220.152 63.333 M295.908 179.773 L 275.606 200.152 295.985 179.849 C 314.929 160.977,316.500 159.394,316.287 159.394 C 316.245 159.394,307.074 168.564,295.908 179.773 M103.787 220.379 L 83.485 240.758 103.864 220.455 C 115.072 209.289,124.242 200.119,124.242 200.077 C 124.242 199.864,122.660 201.435,103.787 220.379 M179.545 336.667 C 190.711 347.833,199.915 356.970,199.998 356.970 C 200.082 356.970,191.014 347.833,179.848 336.667 C 168.683 325.500,159.479 316.364,159.396 316.364 C 159.312 316.364,168.380 325.500,179.545 336.667 " stroke="none" fill="#648434" fill-rule="evenodd"></path><path id="path3" d="M63.181 179.773 L 42.879 200.152 63.258 179.849 C 74.466 168.683,83.636 159.513,83.636 159.471 C 83.636 159.258,82.054 160.829,63.181 179.773 M336.514 220.379 L 316.212 240.758 336.591 220.455 C 355.535 201.583,357.106 200.000,356.893 200.000 C 356.851 200.000,347.681 209.170,336.514 220.379 " stroke="none" fill="#2c2c24" fill-rule="evenodd"></path><path id="path4" d="M179.545 103.636 C 190.711 114.803,199.915 123.939,199.998 123.939 C 200.082 123.939,191.014 114.803,179.848 103.636 C 168.683 92.470,159.479 83.333,159.396 83.333 C 159.312 83.333,168.380 92.470,179.545 103.636 M62.878 179.773 L 42.576 200.152 62.955 179.849 C 74.163 168.683,83.333 159.513,83.333 159.471 C 83.333 159.258,81.751 160.829,62.878 179.773 M336.817 220.379 L 316.515 240.758 336.894 220.455 C 348.102 209.289,357.273 200.119,357.273 200.077 C 357.273 199.864,355.690 201.435,336.817 220.379 " stroke="none" fill="#74a43c" fill-rule="evenodd"></path></g></svg>